User Type,Username,Date,Text
,joc.nat,2012-04-21T00:03Z,"A: 10
V: 10

M: 10"
,felipefigueira,2012-04-22T03:09Z,Está sem seeds...vamos colaborar ae galera
,carai-0,2012-04-22T23:26Z,"Bem suspeito...  vem um .mkv de 4 gigas e poucos sendo que ta classificado como DVDR. 

O Cara dizendo A:10, V:10, M:10 é o próprio criador do torrent que não nenhum upload no histórico. 

Alguem confirma logo que esse torrent é fajuto? "
,menlesk,2012-04-23T17:30Z,"Estou nos 52% baixando no máx. a 130kb/s. 
Termina hj ainda, e digo se é hot ou fake, mas pelo tamanho, por ser DVD, é de se estranhar, bom, em todo caso, volto para confirmar!!"
,menlesk,2012-04-23T19:48Z,"Qualidade excelente!!!


Format                           : Matroska
Format version                : Version 2
File size                          : 4.37 GiB
Duration                         : 1h 41mn
Overall bit rate                : 6 172 Kbps
Encoded date                  : UTC 2012-04-18 11:31:41
Writing application           : mkvmerge v5.5.0 ('Healer') built on Apr  6 2012 21:43:24
Writing library                  : libebml v1.2.3 + libmatroska v1.3.0

Video
ID                                    : 1
Format                             : AVC
Format/Info                      : Advanced Video Codec
Format profile                   : High@L4.1
Format settings, CABAC           : Yes
Format settings, ReFrames        : 9 frames
Codec ID                                 : V_MPEG4/ISO/AVC
Duration                         : 1h 41mn
Bit rate                           : 5 532 Kbps
Width                             : 1 280 pixels
Height                            : 720 pixels
Display aspect ratio         : 16:9
Frame rate                     : 23.976 fps
Color space                    : YUV
Chroma subsampling       : 4:2:0
Bit depth                        : 8 bits
Scan type                       : Progressive
Bits/(Pixel*Frame)           : 0.250
Stream size                     : 3.83 GiB (88%)
Writing library                  : x264 core 119 r2106 07efeb4
Encoding settings                : cabac=1 / ref=9 / deblock=1:-3:-3 / analyse=0x3:0x133 / me=umh / subme=10 / psy=1 / psy_rd=1.10:0.10 / mixed_ref=1 / me_range=16 / chroma_me=1 / trellis=2 / 8x8dct=1 / cqm=0 / deadzone=21,11 / fast_pskip=0 / chroma_qp_offset=-3 / threads=12 / sliced_threads=0 / nr=0 / decimate=0 / interlaced=0 / bluray_compat=0 / constrained_intra=0 / bframes=7 / b_pyramid=2 / b_adapt=2 / b_bias=0 / direct=3 / weightb=1 / open_gop=0 / weightp=2 / keyint=250 / keyint_min=23 / scenecut=40 / intra_refresh=0 / rc_lookahead=150 / rc=2pass / mbtree=1 / bitrate=5532 / ratetol=1.0 / qcomp=0.60 / qpmin=0 / qpmax=69 / qpstep=4 / cplxblur=20.0 / qblur=0.5 / ip_ratio=1.40 / aq=1:0.90
Language                         : Portuguese

Audio
ID                                  : 2
Format                           : AC-3
Format/Info                    : Audio Coding 3
Mode extension               : CM (complete main)
Codec ID                        : A_AC3
Duration                         : 1h 41mn
Bit rate mode                  : Constant
Bit rate                           : 640 Kbps
Channel(s)                      : 6 channels
Channel positions             : Front: L C R, Side: L R, LFE
Sampling rate                  : 48.0 KHz
Bit depth                         : 16 bits
Compression mode          : Lossy
Stream size                     : 464 MiB (10%)
Language                        : Portuguese"
,menlesk,2012-04-23T19:51Z,"Qualidade excelente!!!



Format                           : Matroska
Format version                   : Version 2
File size                        : 4.37 GiB
Duration                         : 1h 41mn
Overall bit rate                 : 6 172 Kbps
Encoded date                     : UTC 2012-04-18 11:31:41
Writing application              : mkvmerge v5.5.0 ('Healer') built on Apr  6 2012 21:43:24
Writing library                  : libebml v1.2.3 + libmatroska v1.3.0

Video
ID                               : 1
Format                           : AVC
Format/Info                      : Advanced Video Codec
Format profile                   : High@L4.1
Format settings, CABAC           : Yes
Format settings, ReFrames        : 9 frames
Codec ID                         : V_MPEG4/ISO/AVC
Duration                         : 1h 41mn
Bit rate                         : 5 532 Kbps
Width                            : 1 280 pixels
Height                           : 720 pixels
Display aspect ratio             : 16:9
Frame rate                       : 23.976 fps
Color space                      : YUV
Chroma subsampling               : 4:2:0
Bit depth                        : 8 bits
Scan type                        : Progressive
Bits/(Pixel*Frame)               : 0.250
Stream size                      : 3.83 GiB (88%)
Writing library                  : x264 core 119 r2106 07efeb4
Encoding settings                : cabac=1 / ref=9 / deblock=1:-3:-3 / analyse=0x3:0x133 / me=umh / subme=10 / psy=1 / psy_rd=1.10:0.10 / mixed_ref=1 / me_range=16 / chroma_me=1 / trellis=2 / 8x8dct=1 / cqm=0 / deadzone=21,11 / fast_pskip=0 / chroma_qp_offset=-3 / threads=12 / sliced_threads=0 / nr=0 / decimate=0 / interlaced=0 / bluray_compat=0 / constrained_intra=0 / bframes=7 / b_pyramid=2 / b_adapt=2 / b_bias=0 / direct=3 / weightb=1 / open_gop=0 / weightp=2 / keyint=250 / keyint_min=23 / scenecut=40 / intra_refresh=0 / rc_lookahead=150 / rc=2pass / mbtree=1 / bitrate=5532 / ratetol=1.0 / qcomp=0.60 / qpmin=0 / qpmax=69 / qpstep=4 / cplxblur=20.0 / qblur=0.5 / ip_ratio=1.40 / aq=1:0.90
Language                         : Portuguese

Audio
ID                               : 2
Format                           : AC-3
Format/Info                      : Audio Coding 3
Mode extension                   : CM (complete main)
Codec ID                         : A_AC3
Duration                         : 1h 41mn
Bit rate mode                    : Constant
Bit rate                         : 640 Kbps
Channel(s)                       : 6 channels
Channel positions                : Front: L C R, Side: L R, LFE
Sampling rate                    : 48.0 KHz
Bit depth                        : 16 bits
Compression mode                 : Lossy
Stream size                      : 464 MiB (10%)
Language                         : Portuguese"
,carai-0,2012-04-24T17:28Z,funciona mesmo 
